<?xml version="1.0" encoding="UTF-8"?>
<svg version="1.1" xmlns="http://www.w3.org/2000/svg" width="144" height="136">
<path d="M0 0 C47.52 0 95.04 0 144 0 C144 44.88 144 89.76 144 136 C96.48 136 48.96 136 0 136 C0 91.12 0 46.24 0 0 Z " fill="#EEF5FE" transform="translate(0,0)"/>
<path d="M0 0 C8.91 0 17.82 0 27 0 C24.01220825 2.3902334 21.24671982 4.51362933 18.125 6.625 C10.23673985 12.53001138 5.35551713 21.22267281 3.4397583 30.80110168 C2.97049659 34.21461431 2.8585203 37.48691947 2.83886719 40.93237305 C2.83141983 41.93130836 2.83141983 41.93130836 2.82382202 42.95042419 C2.80930679 45.1375332 2.80241535 47.32456963 2.796875 49.51171875 C2.79404762 50.26476603 2.79122025 51.0178133 2.78830719 51.79368019 C2.77335565 55.78099539 2.76410145 59.7682748 2.75976562 63.75561523 C2.75429521 67.84616608 2.73028605 71.9363817 2.70179367 76.02682781 C2.6830424 79.19697484 2.67795504 82.36704322 2.67642975 85.53724098 C2.67342943 87.04372802 2.66549109 88.55021456 2.65224457 90.05664635 C2.52770281 105.31182253 4.97227503 118.71581631 16 130 C18.09540048 131.4425425 20.21704041 132.75797687 22.42578125 134.01953125 C23.20501953 134.50486328 23.20501953 134.50486328 24 135 C24 135.33 24 135.66 24 136 C16.08 136 8.16 136 0 136 C0 91.12 0 46.24 0 0 Z " fill="#FEFEFF" transform="translate(0,0)"/>
<path d="M0 0 C4.00196246 2.33632062 7.12036676 4.58003204 8.74609375 9.05078125 C9.75357316 15.0155173 8.79545328 19.44782202 5.29296875 24.38671875 C1.853465 28.08679097 -2.37541719 29.17333529 -7.25390625 29.55078125 C-11.92971627 29.35103791 -15.0006456 27.3040419 -18.25390625 24.05078125 C-21.14325899 19.94976445 -21.84621999 16.2200454 -21.671875 11.296875 C-20.75685743 6.37972453 -17.68332021 3.2816655 -14.00390625 0.11328125 C-9.24063626 -1.72707306 -4.7670588 -2.00761748 0 0 Z " fill="#2064FC" transform="translate(71.25390625,39.94921875)"/>
<path d="M0 0 C1.20205078 -0.01546875 2.40410156 -0.0309375 3.64257812 -0.046875 C10.47259277 -0.01673704 15.08094839 0.2857709 20.5625 4.5 C25.40278461 10.45727337 25.00312799 16.04604322 24.5625 23.5 C22.90635343 23.88218767 21.23792976 24.21395102 19.5625 24.5 C17.51496315 22.45246315 18.3093917 18.13499292 18.234375 15.359375 C17.26060689 11.21519907 16.10194548 9.90854949 12.5625 7.5 C8.54795388 6.76731873 4.63293838 6.80214012 0.5625 6.875 C-0.51773438 6.85566406 -1.59796875 6.83632812 -2.7109375 6.81640625 C-7.60081419 6.84659067 -10.52797286 6.8814327 -14.63671875 9.67578125 C-16.62461971 12.7934654 -17.11740881 14.6441437 -17.25 18.3125 C-17.29769531 19.28832031 -17.34539063 20.26414062 -17.39453125 21.26953125 C-17.40871094 22.00558594 -17.42289063 22.74164063 -17.4375 23.5 C-19.09364657 23.88218767 -20.76207024 24.21395102 -22.4375 24.5 C-24.20959714 22.72790286 -23.69336963 20.27731982 -23.75 17.875 C-23.68800928 12.07542361 -23.03731389 9.04713333 -19.4375 4.5 C-13.744673 -0.81715821 -7.46191416 -0.0957167 0 0 Z " fill="#1A61FC" transform="translate(64.4375,74.5)"/>
<path d="M0 0 C2.5625 2.0625 2.5625 2.0625 4 5 C4.20905365 8.57481734 3.68266041 11.75514867 1.9375 14.9375 C-1.24485133 16.68266041 -4.42518266 17.20905365 -8 17 C-11.06790679 15.49868391 -12.50948528 14.38498273 -13.6640625 11.125 C-14.42043055 7.20968301 -14.33151312 5.53727989 -12.1875 2.0625 C-8.32150923 -1.58257701 -4.97825376 -1.40412285 0 0 Z " fill="#EBF3FE" transform="translate(70,46)"/>
<path d="M0 0 C7.92 0 15.84 0 24 0 C24 8.25 24 16.5 24 25 C22.79836445 23.19754668 21.62718846 21.37340118 20.51953125 19.51171875 C14.96797611 10.32688038 9.71523426 5.43151036 0 1 C0 0.67 0 0.34 0 0 Z " fill="#FEFEFF" transform="translate(120,0)"/>
<path d="M0 0 C5.47466096 0.64407776 9.3556475 3.026777 12.875 7.25 C14.70409844 11.72112952 14.73004993 15.60561007 13.34375 20.15234375 C11.02245654 25.52533767 8.32797595 27.67506504 3 30 C2.01 30 1.02 30 0 30 C-0.33 28.35 -0.66 26.7 -1 25 C-0.50628906 24.66226563 -0.01257813 24.32453125 0.49609375 23.9765625 C1.13675781 23.53054687 1.77742188 23.08453125 2.4375 22.625 C3.07558594 22.18414062 3.71367188 21.74328125 4.37109375 21.2890625 C6.74872712 19.40748214 6.97345259 18.19910554 7.375 15.1875 C6.87530888 10.94012544 5.21951007 9.69540378 2 7 C1.01 6.34 0.02 5.68 -1 5 C-0.67 3.35 -0.34 1.7 0 0 Z " fill="#1F64FC" transform="translate(84,39)"/>
<path d="M0 0 C0.33 0 0.66 0 1 0 C1 7.59 1 15.18 1 23 C-5.6 23 -12.2 23 -19 23 C-16.38038121 20.90430497 -13.75315325 18.81617795 -11.0625 16.8125 C-5.79365384 12.41498757 -2.37269406 6.35702937 0 0 Z " fill="#FEFEFF" transform="translate(143,113)"/>
<path d="M0 0 C4.53829228 0.53391674 7.4179638 2.19666732 11 5 C14.00947711 8.99619091 14.33738383 11.86633348 14.1875 16.8125 C14.16042969 17.97394531 14.13335937 19.13539062 14.10546875 20.33203125 C14.07066406 21.21246094 14.03585938 22.09289062 14 23 C12.34385343 23.38218767 10.67542976 23.71395102 9 24 C7.24216351 22.24216351 7.83077833 19.5733457 7.75 17.1875 C7.46931143 12.27368728 7.46931143 12.27368728 4.625 8.375 C3.75875 7.92125 2.8925 7.4675 2 7 C1.01 6.34 0.02 5.68 -1 5 C-0.67 3.35 -0.34 1.7 0 0 Z " fill="#1F64FC" transform="translate(93,75)"/>
</svg>
